<svg xmlns="http://www.w3.org/2000/svg" width="298" height="67" viewBox="0 0 298 67"><path fill="#EC1C24" d="M286.92 41.55c-.46 1.42-2.23 2.57-3.95 2.57H153.22c-1.72 0-2.74-1.15-2.28-2.57l10.89-33.52c.46-1.42 2.23-2.57 3.95-2.57h129.74c1.72 0 2.74 1.15 2.28 2.57l-10.88 33.52z"/><path fill="#231F20" d="M13.23 9.8h11.15l-.89 3.82c-.09.39-.25.64-.49.78-.24.13-.61.2-1.11.2h-6.71c-.98 0-1.67.17-2.09.51-.42.34-.73.84-.93 1.51-.21.67-.31 1.27-.31 1.8 0 1.33.92 2.25 2.75 2.75 3.14.83 4.86 1.33 5.15 1.51 1.87 1.04 2.8 2.87 2.8 5.51 0 3.11-.62 5.75-1.87 7.91-1.51 2.61-3.67 3.91-6.49 3.91H1.46c-.42 0-.75-.15-1.02-.44s-.4-.67-.4-1.11l1.51-5.69h.53c-.08.18-.13.39-.13.63 0 .42.15.79.44 1.09.3.3.73.45 1.29.45h1.47c1.72 0 3.43-.05 5.15-.15 1.72-.1 2.64-.26 2.75-.47.56 0 1.07-.5 1.53-1.51.46-1.01.69-1.95.69-2.84 0-1.07-1.74-2.07-5.22-3-3.48-.93-5.22-2.52-5.22-4.78v-.58c0-3.64.65-6.47 1.95-8.48 1.46-2.22 3.61-3.33 6.45-3.33zm27.72 19.95h-7.11l-2.13 8.4c-.09.59-.01 1.01.24 1.27.25.25.73.45 1.44.6h-7.2c-.36 0-.67-.07-.93-.22-.42-.24-.62-.61-.62-1.11v-.53l6.57-26.21c.12-.47.01-.95-.33-1.42s-.75-.71-1.22-.71h15.59c2.13 0 3.67.37 4.62 1.11 1.13.89 1.69 2.52 1.69 4.89 0 3.49-.71 6.49-2.13 8.97-1.89 3.3-4.72 4.96-8.48 4.96zm-3.24-15.37l-2.58 10.35h4.31c1.6 0 2.81-.86 3.64-2.58.71-1.45 1.07-3.24 1.07-5.37 0-1.04-.16-1.69-.47-1.98-.31-.28-.85-.42-1.62-.42h-4.35zm20.83-2.45c.06-.18.09-.43.09-.76 0-.47-.15-.84-.44-1.11-.09-.09-.24-.18-.44-.27h19.72l-.8 3.64c-.12.62-.59.93-1.42.93H64.58L63.12 21h10.84l-.76 3.91c-.06.33-.19.57-.38.73-.19.16-.51.24-.96.24H63.6c-.83 0-1.34.09-1.53.27-.19.18-.36.56-.51 1.15l-1.64 7.68H70.8c.65 0 1.07-.07 1.24-.22.18-.15.37-.53.58-1.15h.4l-1.15 5.02c-.12.5-.39.86-.82 1.07-.43.21-.97.31-1.62.31H53.66c-.98 0-1.47-.36-1.47-1.07 0-.09.03-.31.09-.67l6.26-26.34zm24.12 0c.06-.18.09-.43.09-.76 0-.47-.15-.84-.44-1.11-.09-.09-.24-.18-.44-.27h19.72l-.8 3.64c-.12.62-.59.93-1.42.93H88.7L87.24 21h10.84l-.76 3.91c-.06.33-.19.57-.38.73-.19.16-.51.24-.96.24h-8.26c-.83 0-1.34.09-1.53.27-.19.18-.36.56-.51 1.15l-1.64 7.68h10.88c.65 0 1.07-.07 1.24-.22.18-.15.37-.53.58-1.15h.4l-1.15 5.02c-.12.5-.39.86-.82 1.07-.43.21-.97.31-1.62.31H77.78c-.98 0-1.47-.36-1.47-1.07 0-.09.03-.31.09-.67l6.26-26.34zm34.47 28.08h-15.19c-.47 0-.82-.11-1.04-.33s-.33-.53-.33-.91c0-.3.04-.58.13-.85l6.88-26.56c.06-.41-.31-.84-1.11-1.29-.12-.06-.33-.15-.62-.27h15.55c2.31 0 4.04.56 5.2 1.69 1.42 1.39 2.13 3.75 2.13 7.07 0 2.97-.4 5.95-1.2 8.94-.92 3.44-2.25 6.48-4 9.12-.62 1.04-1.6 1.88-2.93 2.54-1.19.57-2.34.85-3.47.85zm-3.37-25.68l-4.89 20.57h4.58c.98 0 1.73-.06 2.27-.18s.98-.42 1.33-.89c1.72-2.08 2.98-5.08 3.78-8.99.53-2.64.8-5.27.8-7.88 0-.89-.27-1.55-.82-1.98-.55-.43-1.31-.65-2.29-.65h-4.76zm17.99-3.15c-.12-.44-.34-.77-.67-.98-.09-.06-.4-.19-.93-.4h7.02c.5 0 .86.1 1.07.31.21.21.37.56.49 1.07l2.4 10.75 6.26-10.53c.12-.24.18-.41.18-.53 0-.47-.42-.83-1.24-1.07h7.02c.62 0 .93.25.93.76 0 .21-.04.43-.13.67-.03.09-.09.21-.18.36L143 28.2l-2.35 10.04c-.12.47-.03.86.27 1.16.18.18.52.39 1.02.62h-7.46c-.62 0-.93-.44-.93-1.33v-.58l2.75-10.22-4.55-16.71z"/><path fill="#FFF" d="M183.36 40.01h-15.19c-.47 0-.82-.11-1.04-.33s-.33-.53-.33-.91c0-.3.04-.58.13-.85l6.89-26.56c.06-.41-.31-.84-1.11-1.29-.12-.06-.33-.15-.62-.27h15.55c2.31 0 4.04.56 5.2 1.69 1.42 1.39 2.13 3.75 2.13 7.07 0 2.97-.4 5.95-1.2 8.94-.92 3.44-2.25 6.48-4 9.12-.62 1.04-1.6 1.88-2.93 2.54-1.2.57-2.35.85-3.48.85zm-3.38-25.68L175.1 34.9h4.58c.98 0 1.73-.06 2.27-.18.53-.12.98-.42 1.33-.89 1.72-2.08 2.98-5.08 3.78-8.99.53-2.64.8-5.27.8-7.88 0-.89-.27-1.55-.82-1.98-.55-.43-1.31-.65-2.29-.65h-4.77zm26.44 12.71h-2.58l-2.67 11.5c-.09.42.01.74.31.98.15.12.46.28.93.49h-7.02c-.35 0-.67-.14-.96-.42s-.38-.6-.29-.96l6.35-26.79c.06-.53.09-.86.09-.98 0-.27-.09-.49-.27-.67s-.47-.31-.89-.4h15.64c1.81 0 3.12.31 3.95.93 1.16.86 1.73 2.41 1.73 4.66 0 4.15-.77 7.15-2.31 9.02-1.21 1.45-3.05 2.33-5.51 2.62l2.22 6.89c.35.8.83 1.2 1.42 1.2h1.64l-.98 3.91c-.15.65-.62.98-1.42.98h-4.49c-.95 0-1.57-.38-1.87-1.15l-3.02-11.81zm.31-12.62l-1.82 7.82h4.89c1.3 0 2.32-.37 3.06-1.11.86-.83 1.29-2.12 1.29-3.86 0-1.18-.24-1.98-.71-2.4-.36-.3-.96-.44-1.82-.44h-4.89zM228 11.27v-.49c0-.3-.1-.5-.31-.62s-.5-.22-.89-.31h7.15c.5 0 .85.14 1.04.42.19.28.24.61.16 1l-6.44 27.01c-.12.44-.06.84.18 1.2s.55.53.93.53h-7.06c-.89 0-1.33-.41-1.33-1.24v-.4l6.57-27.1zm10.62-.18c0-.38-.13-.7-.4-.93-.27-.24-.56-.36-.89-.36h7.2c.24 0 .44.11.6.33.16.22.24.48.24.78l.62 19.68 10.93-19.15c.12-.21.18-.43.18-.67 0-.44-.28-.77-.84-.98H263c.38 0 .66.1.82.29.16.19.24.44.24.73v.44l-16.63 28.74h-6.2c-.48 0-.83-.06-1.07-.18-.45-.24-.67-.61-.67-1.11l-.87-27.61zm30.07.84c.06-.18.09-.43.09-.76 0-.47-.15-.84-.44-1.11-.09-.09-.24-.18-.44-.27h19.72l-.8 3.64c-.12.62-.59.93-1.42.93h-10.66L273.26 21h10.84l-.75 3.91c-.06.33-.19.57-.38.73-.19.16-.51.24-.96.24h-8.26c-.83 0-1.34.09-1.53.27-.19.18-.36.56-.51 1.15l-1.64 7.68h10.88c.65 0 1.07-.07 1.24-.22.18-.15.37-.53.58-1.15h.4l-1.15 5.02c-.12.5-.39.86-.82 1.07-.43.21-.97.31-1.62.31H263.8c-.98 0-1.47-.36-1.47-1.07 0-.09.03-.31.09-.67l6.27-26.34z"/><path d="M167.8 47.52h6.07c-.11.63-.22 1.26-.33 1.9-.08.33-.25.54-.5.64a1.6 1.6 0 0 1-.45.07c-.22.02-.43.03-.64.03h-3.17c-.25 0-.45.01-.59.03-.14.03-.29.1-.45.23-.46.38-.99 1.75-1.59 4.1-.6 2.35-.9 4.07-.9 5.14 0 .41.11.7.32.85.21.16.49.24.84.24h4.17c.28 0 .55-.09.79-.26.25-.17.4-.41.46-.71h.26l-.43 2.87c-.06.24-.23.45-.5.64s-.55.31-.85.36h-6.18c-.74 0-1.33-.1-1.75-.28-.74-.33-1.11-.91-1.11-1.73 0-1.07.21-2.68.62-4.81.41-2.13.9-4.03 1.47-5.71.63-1.9 1.2-2.93 1.69-3.12.5-.18.94-.3 1.34-.37.39-.08.86-.11 1.41-.11zm16.61 12.03h-5.4l-1.61 2.8c-.08.16-.12.3-.12.42 0 .39.21.68.64.85h-3.32c-.27 0-.46-.06-.58-.18a.618.618 0 0 1-.18-.46c0-.17.05-.34.14-.5l8.2-14.14a.636.636 0 0 0-.05-.66.368.368 0 0 0-.31-.17h5.12c.17 0 .3.08.39.22.09.15.13.3.13.44l.52 14.83c0 .17.02.29.07.35.06.08.23.17.5.26h-3.58c-.38 0-.57-.2-.57-.61v-3.45zm-.31-8.88L180.48 57h3.81l-.19-6.33zm11.85 6.04h-1.37l-1.42 6.14c-.05.22.01.39.17.52.08.06.24.15.5.26h-3.74c-.19 0-.36-.07-.51-.23-.15-.15-.2-.32-.15-.51l3.39-14.29c.03-.28.05-.46.05-.52 0-.14-.05-.26-.14-.35-.09-.1-.25-.17-.47-.21h8.34c.96 0 1.67.17 2.11.5.62.46.92 1.29.92 2.49 0 2.21-.41 3.81-1.23 4.81-.65.77-1.63 1.24-2.94 1.4l1.18 3.67c.19.43.44.64.76.64h.88l-.52 2.08c-.08.35-.33.52-.76.52h-2.39c-.51 0-.84-.2-1-.62l-1.66-6.3zm.16-6.73l-.97 4.17h2.61c.69 0 1.24-.2 1.63-.59.46-.44.69-1.13.69-2.06 0-.63-.13-1.06-.38-1.28-.19-.16-.51-.24-.97-.24h-2.61zm21.77 6.73h-1.37l-1.42 6.14c-.05.22.01.39.17.52.08.06.24.15.5.26h-3.74c-.19 0-.36-.07-.51-.23-.15-.15-.2-.32-.15-.51l3.39-14.29c.03-.28.05-.46.05-.52 0-.14-.05-.26-.14-.35-.09-.1-.25-.17-.47-.21h8.34c.96 0 1.67.17 2.11.5.62.46.92 1.29.92 2.49 0 2.21-.41 3.81-1.23 4.81-.65.77-1.63 1.24-2.94 1.4l1.18 3.67c.19.43.44.64.76.64h.88l-.52 2.08c-.08.35-.33.52-.76.52h-2.39c-.51 0-.84-.2-1-.62l-1.66-6.3zm.17-6.73l-.97 4.17h2.61c.7 0 1.24-.2 1.63-.59.46-.44.69-1.13.69-2.06 0-.63-.13-1.06-.38-1.28-.19-.16-.51-.24-.97-.24h-2.61zm11.02-1.33c.03-.09.05-.23.05-.4 0-.25-.08-.45-.24-.59a.659.659 0 0 0-.24-.14h10.52l-.43 1.94c-.06.33-.32.5-.76.5h-5.68l-.78 3.53h5.78l-.4 2.09c-.03.17-.1.3-.2.39-.1.09-.27.13-.51.13h-4.41c-.44 0-.71.05-.82.14-.1.09-.19.3-.27.62l-.88 4.1h5.8c.35 0 .57-.04.66-.12.09-.08.2-.28.31-.62h.21l-.62 2.68c-.06.27-.21.46-.44.57-.23.11-.52.17-.86.17h-8.41c-.52 0-.78-.19-.78-.57 0-.05.02-.17.05-.35l3.35-14.07zm12.65-.26c.01-.05.02-.09.02-.14v-.12c0-.19-.05-.32-.14-.4-.05-.03-.18-.1-.4-.21h3.36c.19 0 .36.04.5.11s.31.26.5.56l2.87 7.39 1.66-7.23c0-.25-.04-.43-.12-.54-.05-.06-.25-.16-.62-.29h3.08c.3 0 .51.05.63.15.12.1.18.3.18.58l-3.46 15.37h-1.49c-.24 0-.46-.06-.66-.19-.21-.13-.36-.28-.47-.47l-3.25-8.93-2.01 8.58c-.06.29.02.53.26.72.24.2.39.3.45.3l-3.46.07c-.19 0-.35-.09-.5-.26a.874.874 0 0 1-.21-.57l3.28-14.48zm12.84 2.13c-.21 0-.33.01-.38.03-.13.03-.27.15-.43.35l.54-2.56c.03-.19.13-.32.3-.38.17-.06.3-.1.39-.1h9.97c.74 0 1.11-.12 1.11-.35h.14l-.54 2.46c-.05.19-.12.33-.23.42-.1.09-.28.13-.53.13h-3.51l-2.94 12.53c-.05.17.05.32.29.45.16.08.25.12.26.12l-3.81.07c-.16 0-.29-.07-.39-.2a.71.71 0 0 1-.15-.44l3.06-12.53h-3.15zm17.65 9.03h-5.4l-1.61 2.8c-.08.16-.12.3-.12.42 0 .39.21.68.64.85h-3.32c-.27 0-.46-.06-.58-.18a.618.618 0 0 1-.18-.46c0-.17.05-.34.14-.5l8.2-14.14a.636.636 0 0 0-.05-.66.368.368 0 0 0-.31-.17h5.12c.17 0 .3.08.39.22.09.15.13.3.13.44l.52 14.83c0 .17.02.29.07.35.06.08.23.17.5.26h-3.58c-.38 0-.57-.2-.57-.61v-3.45zm-.31-8.88L268.27 57h3.81l-.18-6.33zm8.72-2.02v-.45c0-.46-.18-.69-.55-.69h3.77c.46 0 .69.17.69.52v.26l-2.91 12.44h4.29c.69 0 1.14-.09 1.33-.26.06-.05.09-.13.07-.26h.19l-.66 2.65c-.08.32-.19.52-.32.62-.13.09-.45.14-.96.14h-7.65c-.22 0-.38-.07-.49-.23a.94.94 0 0 1-.15-.53c0-.11.01-.2.02-.26l3.33-13.95z" fill="#231F20"/></svg>